<svg width="24" height="24" viewBox="0 0 24 24" fill="none" xmlns="http://www.w3.org/2000/svg">
<path d="M6.43249 14.0853L5.73631 16.6842L3.19178 16.738C2.43133 15.3276 2 13.7139 2 11.9991C2 10.3409 2.40329 8.77716 3.11814 7.40027H3.11869L5.38403 7.81557L6.37639 10.0672C6.16869 10.6727 6.05549 11.3227 6.05549 11.9991C6.05557 12.7331 6.18854 13.4364 6.43249 14.0853Z" fill="currentColor"/>
<path d="M21.8253 10.1312C21.9401 10.7361 22 11.3609 22 11.9993C22 12.7152 21.9248 13.4136 21.7814 14.0872C21.2945 16.3795 20.0225 18.3811 18.2604 19.7975L18.2599 19.797L15.4066 19.6514L15.0027 17.1305C16.172 16.4449 17.0857 15.3718 17.5671 14.0872H12.2197V10.1312H17.6451H21.8253Z" fill="currentColor"/>
<path d="M18.2598 19.7978L18.2603 19.7984C16.5466 21.1758 14.3696 22 11.9998 22C8.19148 22 4.88045 19.8715 3.19141 16.7391L6.43212 14.0864C7.27662 16.3402 9.45083 17.9446 11.9998 17.9446C13.0954 17.9446 14.1218 17.6484 15.0026 17.1314L18.2598 19.7978Z" fill="currentColor"/>
<path d="M18.3835 4.30214L15.1438 6.95428C14.2323 6.38452 13.1548 6.05539 12.0004 6.05539C9.39376 6.05539 7.17888 7.73337 6.37668 10.068L3.11894 7.40099H3.11839C4.78271 4.19226 8.1355 2 12.0004 2C14.4268 2 16.6516 2.86428 18.3835 4.30214Z" fill="currentColor"/>
</svg>
