<svg width="24" height="24" viewBox="0 0 24 24" fill="none" xmlns="http://www.w3.org/2000/svg">
<path d="M23.4511 5.94182C23.6196 5.40727 23.4512 5 22.6479 5H20.0307C19.3569 5 19.0589 5.34364 18.8905 5.72545C18.8905 5.72545 17.556 8.92 15.6643 11.0073C15.0424 11.6055 14.7703 11.7964 14.4335 11.7964C14.265 11.7964 13.993 11.6055 13.993 11.0582V5.94182C13.993 5.29273 13.8375 5 13.2803 5H9.14724C8.73264 5 8.48647 5.30545 8.48647 5.59818C8.48647 6.20909 9.4582 6.36182 9.52298 8.10545V11.8982C9.52298 12.7382 9.3675 12.8909 9.04359 12.8909C8.16256 12.8909 5.98587 9.67091 4.70319 6.00545C4.44406 5.29273 4.19789 5 3.52415 5H0.893994C0.155477 5 0 5.34364 0 5.72545C0 6.41273 0.893994 9.79818 4.14606 14.2782C6.30978 17.3455 9.3675 19 12.1531 19C13.8245 19 14.0318 18.6309 14.0318 17.9945V15.6782C14.0318 14.9527 14.1873 14.8 14.7185 14.8C15.1072 14.8 15.768 14.9909 17.3228 16.4545C19.1107 18.2109 19.3958 19 20.4064 19H23.0236C23.7751 19 24.1508 18.6309 23.9435 17.9055C23.7103 17.18 22.8552 16.1236 21.7279 14.8764C21.119 14.1764 20.1991 13.4127 19.914 13.0182C19.5254 12.5345 19.642 12.3182 19.914 11.8727C19.914 11.8727 23.1143 7.45636 23.4511 5.94182Z" fill="currentColor"/>
</svg>
